<svg fill="#ffffff" height="186px" width="186px" version="1.1" id="Layer_1" xmlns="http://www.w3.org/2000/svg" xmlns:xlink="http://www.w3.org/1999/xlink" viewBox="-109.95 -109.95 678.04 678.04" xml:space="preserve" stroke="#ffffff" stroke-width="0.00458139">

<g id="SVGRepo_bgCarrier" stroke-width="0"/>

<g id="SVGRepo_tracerCarrier" stroke-linecap="round" stroke-linejoin="round"/>

<g id="SVGRepo_iconCarrier"> <g> <g> <g> <path d="M428.139,13.979H138.495c-16.569,0-30,13.431-30,30v80.993c5.016,0,209.286,0,211.149,0c33.084,0,60,26.916,60,60 c0,34.379,0,39.133,0,72.4h48.495c16.568,0,30-13.431,30-30V43.979C458.139,27.411,444.708,13.979,428.139,13.979z"/> <path d="M319.644,154.968H30c-16.569,0-30,13.431-30,30v183.393c0,16.569,13.431,30,30,30h92.333l29.531,35.11 c5.7,6.777,14.103,10.689,22.959,10.689s17.258-3.912,22.959-10.689l29.531-35.11h92.333c16.569,0,30-13.431,30-30V184.968 C349.644,168.4,336.212,154.968,319.644,154.968z M148.324,322.184H70.161c-8.284,0-15-6.716-15-15s6.716-15,15-15h78.164 c8.284,0,15,6.716,15,15C163.324,315.469,156.608,322.184,148.324,322.184z M271.511,260.15H70.161c-8.284,0-15-6.716-15-15 s6.716-15,15-15h201.351c8.284,0,15,6.716,15,15C286.511,253.434,279.796,260.15,271.511,260.15z"/> </g> </g> </g> </g>

</svg>